<?xml version="1.0" standalone="no"?>
<!DOCTYPE svg PUBLIC "-//W3C//DTD SVG 20010904//EN"
 "http://www.w3.org/TR/2001/REC-SVG-20010904/DTD/svg10.dtd">
<svg version="1.0" xmlns="http://www.w3.org/2000/svg"
 width="372.000000pt" height="372.000000pt" viewBox="0 0 372.000000 372.000000"
 preserveAspectRatio="xMidYMid meet">
<metadata>
Created by potrace 1.14, written by Peter Selinger 2001-2017
</metadata>
<g transform="translate(0.000000,372.000000) scale(0.100000,-0.100000)"
fill="#000000" stroke="none">
<path d="M1680 2550 c-8 -5 -10 -10 -5 -10 6 0 17 5 25 10 8 5 11 10 5 10 -5
0 -17 -5 -25 -10z"/>
<path d="M1632 2524 c-7 -8 -8 -14 -3 -14 10 0 25 19 20 25 -2 1 -10 -3 -17
-11z"/>
<path d="M1584 2478 l-19 -23 23 19 c21 18 27 26 19 26 -2 0 -12 -10 -23 -22z"/>
<path d="M1717 2424 c-3 -5 1 -15 9 -22 16 -14 18 -5 5 17 -5 7 -11 9 -14 5z"/>
<path d="M1455 2349 c-4 -6 -5 -12 -2 -15 2 -3 7 2 10 11 7 17 1 20 -8 4z"/>
<path d="M1729 2343 c-7 -10 -9 -15 -5 -11 5 4 16 2 25 -5 14 -10 14 -10 4 4
-7 9 -10 19 -6 22 3 4 4 7 1 7 -3 0 -12 -8 -19 -17z"/>
<path d="M3599 2318 c7 -9 9 -23 5 -30 -6 -10 -4 -11 7 0 11 10 10 15 -6 30
-17 15 -18 15 -6 0z"/>
<path d="M1430 2309 c0 -5 5 -7 10 -4 6 3 10 8 10 11 0 2 -4 4 -10 4 -5 0 -10
-5 -10 -11z"/>
<path d="M1764 2297 c1 -7 12 -26 24 -43 15 -18 19 -21 12 -7 -5 12 -15 25
-20 28 -6 4 -8 10 -5 15 3 5 1 11 -4 14 -5 4 -8 0 -7 -7z"/>
<path d="M3490 2290 c-8 -5 -12 -12 -9 -15 4 -3 12 1 19 10 14 17 11 19 -10 5z"/>
<path d="M3445 2270 c-3 -6 1 -7 9 -4 18 7 21 14 7 14 -6 0 -13 -4 -16 -10z"/>
<path d="M3409 2243 c-13 -16 -12 -17 4 -4 16 13 21 21 13 21 -2 0 -10 -8 -17
-17z"/>
<path d="M3375 2229 c-4 -6 -5 -12 -2 -15 2 -3 7 2 10 11 7 17 1 20 -8 4z"/>
<path d="M3502 2200 c0 -14 2 -19 5 -12 2 6 2 18 0 25 -3 6 -5 1 -5 -13z"/>
<path d="M3525 2210 c-3 -6 1 -7 9 -4 18 7 21 14 7 14 -6 0 -13 -4 -16 -10z"/>
<path d="M1770 2203 c0 -6 4 -14 9 -17 14 -9 42 5 35 16 -4 6 -10 5 -15 -3 -8
-12 -11 -11 -19 1 -6 9 -10 10 -10 3z"/>
<path d="M3476 2193 c-6 -14 -5 -15 5 -6 7 7 10 15 7 18 -3 3 -9 -2 -12 -12z"/>
<path d="M1816 2171 c-3 -5 -28 -9 -54 -9 -109 -1 -106 4 -110 -239 -2 -137 0
-203 7 -204 6 -1 27 -1 46 -1 66 0 65 -1 65 43 0 47 23 51 24 3 1 -16 4 -33 8
-39 6 -11 88 -13 104 -3 10 7 11 349 0 391 -6 27 -46 53 -75 48 -7 -1 -10 2
-6 8 3 6 4 11 1 11 -3 0 -7 -4 -10 -9z m-24 -103 c3 -11 2 -155 -1 -180 -1 -5
-5 -8 -11 -8 -6 0 -10 40 -10 100 0 55 4 100 9 100 5 0 11 -6 13 -12z"/>
<path d="M1414 2157 c-8 -4 -14 -21 -14 -37 0 -22 6 -30 29 -38 l29 -10 -1
-170 c0 -93 3 -174 6 -178 4 -8 41 -9 103 -5 7 1 11 55 12 169 0 92 1 173 1
180 1 6 12 12 26 12 23 0 25 4 25 40 0 22 -4 40 -10 41 -56 5 -195 2 -206 -4z"/>
<path d="M1868 2163 c7 -3 16 -2 19 1 4 3 -2 6 -13 5 -11 0 -14 -3 -6 -6z"/>
<path d="M1907 2157 c2 -4 9 -5 14 -2 5 4 9 -81 9 -214 0 -170 3 -221 13 -222
25 -3 80 1 85 6 3 2 4 37 4 77 -1 80 7 73 29 -24 8 -40 17 -58 28 -59 19 -1
94 -1 102 0 3 1 6 79 6 174 1 94 2 177 3 182 1 6 1 12 0 15 -1 3 -3 21 -3 40
-1 19 -5 34 -9 33 -5 -2 -28 -3 -53 -3 l-46 0 3 -80 c1 -43 0 -82 -3 -85 -3
-3 -6 1 -6 8 -1 22 -31 148 -36 153 -8 9 -146 10 -140 1z"/>
<path d="M2239 2157 c-23 -12 -23 -13 -22 -204 0 -105 4 -196 7 -202 4 -6 2
-11 -5 -11 -8 0 -8 -4 -1 -13 7 -8 31 -12 67 -11 46 1 53 -1 44 -12 -6 -8 -22
-12 -35 -10 -13 3 -26 1 -29 -4 -3 -5 -13 -7 -23 -4 -14 5 -14 3 2 -6 14 -10
20 -9 28 1 7 10 8 8 5 -9 -3 -12 -1 -20 4 -16 5 3 9 11 9 18 0 8 10 12 25 11
14 -2 23 1 20 5 -3 5 -1 11 5 15 5 3 10 2 10 -3 0 -5 6 -9 13 -9 8 0 14 6 14
13 0 7 -6 10 -13 7 -6 -2 -15 1 -19 8 -9 14 -13 129 -5 134 4 2 12 -24 19 -58
12 -59 41 -119 41 -87 0 13 2 13 10 0 5 -8 10 -10 10 -4 0 6 15 9 35 8 30 -3
35 0 35 17 0 15 -5 19 -16 15 -12 -4 -15 -2 -10 9 4 10 -1 15 -15 15 -11 0
-18 4 -15 9 3 5 -1 12 -10 15 -13 5 -14 9 -4 21 10 13 9 15 -10 15 -19 0 -20
2 -10 15 10 12 9 15 -5 15 -17 0 -17 1 0 20 17 19 17 20 -1 20 -14 0 -16 2 -5
9 9 6 10 11 2 15 -6 4 -11 12 -11 17 0 6 4 8 8 5 4 -2 14 0 22 5 13 7 13 10 1
18 -11 7 -10 12 5 30 10 11 25 21 34 21 12 0 12 2 2 9 -11 6 -9 18 7 62 24 62
19 71 -39 73 -46 2 -55 -5 -65 -51 -10 -48 -23 -49 -18 -3 3 28 1 41 -9 45
-33 12 -67 12 -89 2z"/>
<path d="M3434 2151 c-16 -12 -34 -16 -68 -14 -52 4 -54 1 -60 -100 -3 -32
-10 -65 -18 -74 -8 -10 -8 -14 -1 -10 8 5 10 -6 5 -45 -3 -29 -6 -78 -6 -110
-1 -31 -4 -54 -8 -51 -9 5 -11 -21 -2 -30 3 -3 15 0 26 6 16 9 22 9 25 0 4
-10 8 -9 19 2 8 7 14 18 13 22 -5 30 3 43 26 43 21 0 25 -5 25 -29 0 -22 5
-30 23 -33 52 -9 57 -2 51 75 -2 40 -6 88 -8 107 -2 19 -7 76 -11 125 -4 50
-11 95 -16 101 -5 6 -4 15 3 22 18 18 6 14 -18 -7z m-38 -229 c6 -59 5 -64
-12 -60 -11 2 -17 11 -15 19 1 8 3 38 4 67 1 69 14 54 23 -26z"/>
<path d="M661 2152 c-1 -7 -5 -11 -10 -8 -5 4 -16 3 -25 0 -12 -5 -16 -21 -16
-71 0 -41 -4 -62 -10 -58 -6 4 -9 32 -8 63 l3 57 -40 1 c-41 1 -71 -21 -56
-41 4 -5 7 -88 6 -182 0 -158 1 -173 17 -173 12 0 16 -5 12 -17 -5 -17 -5 -17
6 0 7 10 20 16 33 13 22 -4 22 -2 19 100 -1 65 2 104 8 104 6 0 10 -40 10
-103 l0 -102 28 0 c15 0 28 -4 28 -10 1 -5 -1 -9 -5 -8 -4 1 -8 -5 -8 -13 0
-22 11 -17 29 14 9 15 16 47 17 72 5 198 5 340 -1 340 -5 0 -11 0 -15 -1 -4 0
-10 8 -14 18 -4 10 -8 12 -8 5z"/>
<path d="M3239 2146 c-2 -3 -17 -6 -33 -9 -22 -2 -30 -9 -31 -26 -2 -27 -25
-52 -32 -34 -3 7 -13 23 -22 34 -15 19 -30 23 -97 25 l-79 3 0 -144 0 -143
-26 3 c-14 2 -32 -1 -40 -6 -9 -5 -2 -8 21 -6 38 2 36 4 42 -80 2 -35 0 -34
83 -36 23 0 46 -8 55 -17 8 -9 11 -10 7 -3 -10 15 -1 33 17 33 29 0 41 51 41
184 0 117 6 153 25 141 3 -2 5 -77 5 -167 -2 -157 -1 -163 19 -169 27 -7 67 1
61 11 -3 5 -1 11 5 15 6 4 7 12 3 18 -11 17 -11 130 -1 144 6 7 6 18 2 25 -5
7 -9 54 -9 105 0 84 -5 110 -16 99z m-176 -133 c-2 -21 -4 -51 -3 -68 3 -33 3
-74 1 -117 -1 -18 -7 -28 -16 -28 -13 0 -15 22 -15 135 0 130 1 135 19 126 15
-9 18 -19 14 -48z"/>
<path d="M306 2124 c-15 -15 -18 -25 -20 -69 -1 -11 -7 -20 -13 -20 -6 0 -15
-3 -19 -7 -3 -4 2 -6 13 -4 17 4 20 -2 21 -32 1 -29 -1 -34 -9 -22 -9 13 -10
13 -6 0 2 -8 9 -15 15 -15 5 0 14 -4 19 -8 4 -5 23 -15 41 -22 30 -13 55 -50
45 -67 -9 -16 -20 -7 -19 15 1 20 -4 22 -44 22 -38 0 -45 -3 -45 -20 0 -11 -3
-25 -8 -32 -4 -6 -1 -14 5 -16 10 -4 10 -6 1 -6 -7 -1 -13 -6 -13 -12 0 -5 4
-7 10 -4 6 3 10 1 10 -4 0 -6 -5 -11 -10 -11 -6 0 0 -11 14 -25 14 -14 29 -25
33 -24 4 1 10 1 13 -1 3 -1 27 -3 53 -5 39 -2 52 1 68 18 20 22 22 30 20 121
-2 67 -9 79 -63 107 -37 19 -40 23 -40 54 0 35 5 37 11 5 6 -33 8 -35 49 -37
33 -1 42 2 43 15 0 9 1 32 2 50 3 54 -22 72 -98 72 -44 0 -68 -5 -79 -16z"/>
<path d="M757 2133 c-10 -2 -22 -16 -28 -29 -14 -39 -12 -351 3 -360 11 -7 33
-9 68 -5 6 1 10 17 10 36 0 43 15 46 18 4 1 -18 4 -35 7 -38 6 -10 65 -5 77 7
21 21 8 379 -14 382 -28 5 -128 7 -141 3z m71 -113 c-1 -22 -6 -40 -10 -40 -4
0 -8 18 -8 40 0 22 5 40 10 40 6 0 10 -17 8 -40z m2 -96 c0 -27 -4 -43 -10
-39 -5 3 -10 24 -10 46 0 21 5 39 10 39 6 0 10 -21 10 -46z"/>
<path d="M945 2130 c-6 -10 -9 -379 -3 -385 2 -2 16 -6 31 -9 52 -9 57 -1 57
90 0 53 4 84 11 84 6 0 10 -23 8 -57 -3 -112 -1 -120 24 -117 12 1 33 3 46 3
23 1 23 1 19 103 -2 66 -8 103 -16 106 -8 2 -7 10 4 28 19 28 16 126 -4 146
-13 13 -170 20 -177 8z m105 -87 c0 -10 -5 -25 -10 -33 -7 -11 -10 -7 -10 18
0 17 5 32 10 32 6 0 10 -8 10 -17z"/>
<path d="M1159 2126 c-3 -40 2 -364 6 -376 3 -11 17 -16 43 -15 20 0 43 -4 51
-10 12 -9 12 -7 0 13 -12 20 -12 24 1 32 10 6 11 10 3 10 -8 0 -13 13 -13 31
0 21 -4 28 -12 23 -9 -5 -8 -2 1 9 17 21 18 20 26 -22 3 -19 8 -38 11 -42 2
-4 0 -11 -6 -14 -30 -19 30 -36 91 -26 3 1 -8 52 -23 114 l-29 112 22 75 c12
41 22 79 23 84 0 5 -18 10 -40 12 l-42 4 -10 -47 -10 -48 -1 43 c0 23 -4 43
-8 43 -35 7 -83 4 -84 -5z"/>
<path d="M2528 2127 c-3 -7 -4 -100 -4 -207 l1 -194 37 -2 c43 -3 47 4 46 81
0 86 -1 85 35 85 34 0 85 39 70 53 -3 4 -2 7 3 7 6 0 9 27 9 59 -2 65 -22 106
-58 120 -35 14 -135 12 -139 -2z m111 -98 c9 -27 9 -30 -6 -25 -13 5 -13 4 -4
-7 9 -11 8 -17 -2 -26 -11 -9 -14 -2 -16 39 -2 56 12 65 28 19z"/>
<path d="M2749 2116 c-1 -12 -1 -75 -1 -141 -1 -77 -5 -123 -12 -127 -8 -6 -8
-8 1 -8 7 0 10 -19 9 -55 -3 -59 -5 -57 59 -57 120 0 115 -2 115 42 l0 40 -45
0 c-49 0 -53 4 -28 32 15 16 15 18 1 13 -12 -5 -16 0 -14 19 1 23 5 26 39 26
38 0 38 0 35 38 -2 24 -8 37 -18 38 -8 1 -25 2 -38 3 -20 1 -22 6 -19 38 2 35
5 37 37 39 19 1 38 2 41 3 7 1 3 56 -5 70 -4 6 -39 10 -81 9 -69 -1 -75 -3
-76 -22z"/>
<path d="M220 2020 c-9 -6 -10 -10 -3 -10 6 0 15 5 18 10 8 12 4 12 -15 0z"/>
<path d="M2470 2016 c0 -2 9 -6 20 -9 11 -3 18 -1 14 4 -5 9 -34 13 -34 5z"/>
<path d="M125 1989 c-3 -4 2 -6 10 -5 21 3 28 13 10 13 -9 0 -18 -4 -20 -8z"/>
<path d="M60 1960 c-9 -6 -10 -10 -3 -10 6 0 15 5 18 10 8 12 4 12 -15 0z"/>
<path d="M246 1953 c-4 -9 -4 -14 0 -10 4 4 14 1 23 -6 14 -11 15 -10 1 8 -8
11 -15 21 -16 23 -1 2 -5 -5 -8 -15z"/>
<path d="M40 1935 c0 -5 5 -17 10 -25 5 -8 10 -10 10 -5 0 6 -5 17 -10 25 -5
8 -10 11 -10 5z"/>
<path d="M130 1864 c0 -2 9 -8 20 -14 11 -6 20 -7 20 -2 0 6 -9 12 -20 15 -11
3 -20 3 -20 1z"/>
<path d="M235 1830 c-4 -7 -1 -18 7 -26 13 -13 15 -12 13 5 -2 26 -11 36 -20
21z"/>
<path d="M2707 1753 c3 -7 9 -10 14 -7 14 8 11 21 -5 21 -8 0 -12 -6 -9 -14z"/>
<path d="M2689 1742 c7 -13 6 -23 -2 -32 -10 -12 -9 -12 5 -1 14 10 15 18 7
32 -5 10 -12 19 -15 19 -2 0 0 -8 5 -18z"/>
<path d="M470 1731 c0 -5 5 -13 10 -16 6 -3 10 -2 10 4 0 5 -4 13 -10 16 -5 3
-10 2 -10 -4z"/>
<path d="M580 1710 c8 -5 20 -10 25 -10 6 0 3 5 -5 10 -8 5 -19 10 -25 10 -5
0 -3 -5 5 -10z"/>
<path d="M686 1702 c-3 -5 0 -9 7 -10 7 0 23 -3 36 -6 13 -3 22 -4 20 -2 -2 3
-8 5 -14 6 -5 1 -18 6 -27 11 -9 5 -19 5 -22 1z"/>
<path d="M760 1690 c6 -11 13 -20 16 -20 2 0 0 9 -6 20 -6 11 -13 20 -16 20
-2 0 0 -9 6 -20z"/>
<path d="M780 1704 c0 -17 48 -46 55 -34 3 6 5 10 3 11 -2 0 -12 2 -22 4 -10
2 -23 10 -27 17 -6 8 -9 9 -9 2z"/>
<path d="M1306 1702 c-3 -5 1 -9 9 -9 8 0 12 4 9 9 -3 4 -7 8 -9 8 -2 0 -6 -4
-9 -8z"/>
<path d="M3291 1684 c0 -11 3 -14 6 -6 3 7 2 16 -1 19 -3 4 -6 -2 -5 -13z"/>
<path d="M3329 1691 c8 -5 10 -14 6 -22 -6 -11 -5 -11 5 -2 14 12 6 33 -13 33
-8 0 -7 -3 2 -9z"/>
<path d="M3110 1681 c0 -5 5 -13 10 -16 6 -3 10 -2 10 4 0 5 -4 13 -10 16 -5
3 -10 2 -10 -4z"/>
<path d="M850 1666 c0 -2 7 -7 16 -10 8 -3 12 -2 9 4 -6 10 -25 14 -25 6z"/>
<path d="M2298 1658 c-5 -11 -2 -15 10 -13 9 2 20 4 25 4 4 1 7 6 7 12 0 8 -4
8 -14 0 -11 -9 -15 -9 -18 1 -3 8 -6 7 -10 -4z"/>
<path d="M918 1653 c7 -3 16 -2 19 1 4 3 -2 6 -13 5 -11 0 -14 -3 -6 -6z"/>
<path d="M3351 1649 c-1 -9 7 -25 17 -36 9 -10 14 -14 10 -8 -4 6 -12 22 -17
36 -6 15 -10 18 -10 8z"/>
<path d="M1016 1635 c-3 -8 -1 -15 4 -15 6 0 10 7 10 15 0 8 -2 15 -4 15 -2 0
-6 -7 -10 -15z"/>
<path d="M1387 1612 c-15 -17 -15 -18 8 -18 13 0 21 4 18 10 -4 5 1 7 10 3 9
-3 19 -1 23 6 4 7 4 9 -1 5 -4 -4 -15 -3 -25 2 -13 7 -22 4 -33 -8z"/>
<path d="M1946 1612 c-3 -4 4 -9 15 -9 23 -2 25 3 4 10 -8 4 -16 3 -19 -1z"/>
<path d="M2033 1607 c-3 -6 -1 -7 5 -3 6 3 13 -2 17 -13 3 -11 13 -25 23 -33
16 -12 16 -11 2 6 -14 18 -13 19 3 13 11 -4 16 -3 12 3 -3 6 0 10 7 10 7 0 4
6 -7 14 -23 15 -53 17 -62 3z m52 -7 c3 -5 -1 -10 -9 -10 -9 0 -16 5 -16 10 0
6 4 10 9 10 6 0 13 -4 16 -10z"/>
<path d="M1030 1600 c0 -5 5 -10 11 -10 5 0 7 5 4 10 -3 6 -8 10 -11 10 -2 0
-4 -4 -4 -10z"/>
<path d="M1455 1600 c-2 -4 18 -6 45 -6 27 0 47 3 44 6 -7 7 -85 7 -89 0z"/>
<path d="M1575 1600 c-3 -5 -1 -10 4 -10 6 0 11 5 11 10 0 6 -2 10 -4 10 -3 0
-8 -4 -11 -10z"/>
<path d="M1606 1602 c-3 -5 1 -9 9 -9 8 0 12 4 9 9 -3 4 -7 8 -9 8 -2 0 -6 -4
-9 -8z"/>
<path d="M1685 1600 c-2 -3 9 -6 25 -6 17 0 27 2 25 5 -8 7 -45 9 -50 1z"/>
<path d="M1750 1606 c0 -2 7 -7 16 -10 8 -3 12 -2 9 4 -6 10 -25 14 -25 6z"/>
<path d="M1797 1598 c-7 -5 0 -6 17 -4 16 3 31 7 33 10 8 8 -37 2 -50 -6z"/>
<path d="M1865 1600 c-3 -6 1 -7 9 -4 18 7 21 14 7 14 -6 0 -13 -4 -16 -10z"/>
<path d="M1906 1598 c3 -5 10 -6 15 -3 13 9 11 12 -6 12 -8 0 -12 -4 -9 -9z"/>
<path d="M3226 1582 c-3 -5 1 -9 9 -9 8 0 12 4 9 9 -3 4 -7 8 -9 8 -2 0 -6 -4
-9 -8z"/>
<path d="M1344 1572 c3 -5 0 -13 -6 -15 -9 -4 -10 -6 -1 -6 17 -1 25 16 12 25
-7 4 -9 3 -5 -4z"/>
<path d="M2106 1564 c-3 -8 -2 -12 3 -9 5 3 12 1 16 -5 3 -5 12 -10 18 -10 7
0 4 5 -6 11 -9 6 -15 14 -12 20 4 5 2 9 -3 9 -6 0 -13 -7 -16 -16z"/>
<path d="M2204 1558 l-19 -23 23 19 c21 18 27 26 19 26 -2 0 -12 -10 -23 -22z"/>
<path d="M3395 1556 c10 -14 19 -26 22 -26 7 0 -17 39 -28 46 -6 3 -3 -5 6
-20z"/>
<path d="M1051 1545 c1 -19 18 -51 18 -35 0 8 -4 22 -9 30 -5 8 -9 11 -9 5z"/>
<path d="M3317 1529 c7 -7 15 -10 18 -7 3 3 -2 9 -12 12 -14 6 -15 5 -6 -5z"/>
<path d="M2130 1520 c0 -5 5 -10 11 -10 5 0 7 5 4 10 -3 6 -8 10 -11 10 -2 0
-4 -4 -4 -10z"/>
<path d="M2170 1515 c-11 -13 -10 -14 4 -9 9 3 16 10 16 15 0 13 -6 11 -20 -6z"/>
<path d="M1060 1486 c0 -2 8 -10 18 -17 15 -13 16 -12 3 4 -13 16 -21 21 -21
13z"/>
<path d="M1329 1418 c-5 -9 -5 -48 -1 -43 6 6 11 45 5 45 -2 0 -4 -1 -4 -2z"/>
<path d="M1116 1367 c3 -10 9 -15 12 -12 3 3 0 11 -7 18 -10 9 -11 8 -5 -6z"/>
<path d="M1330 1339 c0 -5 5 -7 10 -4 6 3 10 8 10 11 0 2 -4 4 -10 4 -5 0 -10
-5 -10 -11z"/>
<path d="M1348 1254 c9 -12 19 -20 21 -18 2 2 -1 10 -7 17 -7 8 -10 16 -7 19
3 2 -1 5 -9 5 -12 0 -11 -5 2 -23z"/>
<path d="M1195 1250 c10 -11 20 -20 23 -20 3 0 -3 9 -13 20 -10 11 -20 20 -23
20 -3 0 3 -9 13 -20z"/>
<path d="M1230 1216 c0 -2 8 -10 18 -17 15 -13 16 -12 3 4 -13 16 -21 21 -21
13z"/>
<path d="M1366 1203 c-6 -14 -5 -15 5 -6 7 7 10 15 7 18 -3 3 -9 -2 -12 -12z"/>
<path d="M1295 1160 c3 -5 8 -10 11 -10 2 0 4 5 4 10 0 6 -5 10 -11 10 -5 0
-7 -4 -4 -10z"/>
</g>
</svg>
